<?xml version="1.0" standalone="no"?>
<!DOCTYPE svg PUBLIC "-//W3C//DTD SVG 20010904//EN"
 "http://www.w3.org/TR/2001/REC-SVG-20010904/DTD/svg10.dtd">
<svg version="1.0" xmlns="http://www.w3.org/2000/svg"
 width="500.000000pt" height="500.000000pt" viewBox="0 0 500.000000 500.000000"
 preserveAspectRatio="xMidYMid meet">

<g transform="translate(0.000000,500.000000) scale(0.100000,-0.100000)"
fill="#000000" stroke="none">
<path d="M3082 4978 c-15 -15 -16 -53 -2 -79 15 -26 66 -26 80 1 12 22 8 33
-23 68 -23 25 -37 28 -55 10z"/>
<path d="M2470 4775 c-27 -41 -50 -80 -50 -86 0 -7 -7 -4 -15 7 -13 17 -14 16
-8 -18 7 -45 -4 -50 -18 -8 -12 33 -55 45 -45 13 2 -10 7 -34 10 -53 5 -29 3
-27 -15 17 -12 29 -26 50 -31 47 -12 -8 -2 -79 18 -136 8 -22 14 -50 13 -62 0
-29 -42 65 -58 132 -7 29 -17 52 -22 52 -12 0 -11 -14 4 -80 8 -31 12 -61 9
-68 -2 -7 1 -12 6 -12 5 0 10 -11 10 -25 0 -14 -6 -25 -13 -25 -14 0 -37 56
-58 140 -8 29 -19 56 -26 58 -18 6 -13 -51 13 -132 27 -85 33 -75 -64 -96
-164 -35 -394 -135 -545 -237 -252 -170 -457 -406 -596 -685 -36 -74 -59 -108
-70 -108 -26 0 -50 -11 -44 -20 8 -13 -4 -17 -70 -25 -33 -3 -105 -15 -160
-25 -55 -10 -120 -22 -143 -25 -45 -7 -46 -20 -2 -28 l25 -4 -26 -2 c-18 -1
-28 -8 -32 -21 -4 -15 -14 -20 -36 -20 -30 0 -41 -13 -21 -25 5 -3 7 -12 4
-20 -4 -9 4 -15 28 -18 l33 -4 -32 -1 c-23 -2 -33 -7 -33 -18 0 -13 6 -15 27
-9 16 4 66 9 112 11 86 4 115 -5 104 -32 -3 -8 1 -14 11 -14 15 0 21 -23 16
-59 -1 -10 7 -12 29 -9 17 3 31 1 31 -4 0 -4 -6 -8 -12 -9 -70 -3 -114 -7
-174 -14 -69 -7 -71 -8 -72 -36 0 -16 4 -29 9 -29 6 0 6 -8 -1 -20 -12 -22
-18 -21 100 -24 36 -1 74 1 85 5 11 3 43 10 70 13 l50 7 1 -213 c1 -218 10
-288 60 -481 21 -81 87 -247 133 -333 28 -52 37 -78 33 -102 -2 -20 2 -42 12
-57 9 -13 16 -30 16 -38 0 -7 -24 -52 -54 -99 -30 -47 -50 -90 -46 -95 10 -10
-15 -73 -30 -73 -5 0 -10 -7 -10 -16 0 -9 -22 -58 -49 -108 -50 -93 -69 -145
-92 -251 -7 -33 -21 -78 -32 -99 -25 -52 -33 -120 -12 -112 8 3 15 1 15 -4 0
-6 6 -10 14 -10 8 0 17 -8 20 -17 6 -15 10 -12 28 15 11 17 26 32 34 32 8 0
23 20 34 45 11 25 22 45 24 45 3 0 -4 -21 -15 -46 -11 -26 -17 -49 -14 -52 2
-3 14 16 26 43 l21 47 44 -6 c31 -4 44 -2 45 7 0 6 4 2 9 -10 10 -25 34 -24
56 3 14 18 15 16 9 -30 -8 -62 3 -55 56 34 23 39 43 70 45 70 2 0 1 -13 -2
-30 -10 -48 12 -36 32 17 74 201 135 327 165 343 13 8 20 6 28 -7 9 -17 10
-17 16 0 6 15 15 12 69 -27 88 -63 230 -141 311 -172 89 -34 323 -76 348 -63
11 6 31 6 54 0 27 -8 40 -7 48 1 7 8 6 9 -5 3 -11 -6 -12 -5 -5 3 7 8 37 9
100 3 104 -9 131 -5 114 15 -10 12 7 14 102 16 l114 2 -105 6 -105 6 100 5
100 5 -104 2 c-87 2 -102 4 -97 17 4 13 -8 15 -74 15 -44 0 -80 4 -80 8 0 11
-90 38 -152 47 -48 6 -75 22 -35 21 27 -1 34 29 12 54 -16 17 -14 18 62 16 43
-2 140 -9 217 -16 162 -16 308 -5 451 35 89 24 255 100 255 116 0 5 -35 -8
-78 -30 -264 -133 -535 -143 -907 -34 -27 8 -59 26 -70 39 -11 13 -45 37 -75
53 -99 53 -398 256 -399 270 -1 19 80 230 136 355 25 56 58 133 73 171 16 39
51 120 78 180 183 406 263 580 269 586 13 13 338 41 492 43 l143 1 28 -65 c16
-36 52 -123 80 -194 28 -72 60 -146 70 -165 9 -20 45 -115 78 -211 147 -424
319 -816 435 -990 29 -43 81 -130 116 -194 35 -64 65 -116 68 -116 3 0 2 11
-1 25 -5 19 -2 25 9 25 13 0 14 4 5 21 -18 33 -4 34 42 4 42 -28 57 -31 50
-10 -2 5 8 -1 22 -14 23 -22 31 -21 27 1 0 4 10 3 23 -2 18 -7 26 -5 30 5 9
23 34 6 46 -31 9 -27 15 -32 25 -24 15 13 26 0 49 -54 9 -22 19 -37 21 -34 3
3 -2 21 -10 41 -17 42 -19 57 -5 57 5 0 6 -7 3 -17 -4 -11 -3 -14 5 -9 8 5 10
1 5 -10 -5 -13 -3 -15 7 -9 10 6 12 4 6 -10 -4 -11 -2 -22 6 -27 20 -12 25
-10 31 12 3 11 2 20 -2 20 -14 0 -31 41 -23 56 7 13 11 10 22 -16 7 -18 13
-38 13 -46 0 -8 4 -14 9 -14 14 0 9 19 -32 115 -43 101 -46 110 -30 100 16
-10 13 0 -41 118 -28 62 -62 150 -75 196 -23 76 -24 85 -9 105 160 218 271
468 309 696 9 52 21 118 25 145 14 77 5 328 -14 430 -27 140 -33 128 62 126
48 -1 91 3 104 10 12 6 83 14 158 18 l136 6 1 73 2 72 -52 2 c-28 0 -62 0 -75
-1 -15 -1 -22 2 -19 11 3 7 28 15 59 19 30 3 44 6 32 7 -15 1 -21 7 -17 16 3
8 12 12 20 9 8 -3 14 1 14 11 0 10 -6 13 -15 9 -21 -7 -15 20 5 29 12 5 12 7
-2 7 -10 1 -18 5 -18 10 0 5 -30 11 -67 15 -38 3 -97 10 -133 15 -36 6 -121
15 -190 21 -179 15 -168 10 -223 100 -219 363 -582 639 -1027 780 l-85 27 -26
74 -26 74 18 54 c27 78 25 97 -8 95 -15 0 -34 6 -42 13 -7 8 -20 12 -27 9 -8
-3 -14 -1 -14 5 0 6 -4 7 -10 4 -11 -7 -61 18 -80 40 -11 13 -15 14 -29 2 -9
-8 -24 -14 -33 -14 -19 0 -24 22 -8 32 6 3 10 11 10 17 0 6 -9 3 -20 -7 -10
-9 -26 -15 -35 -12 -17 7 -20 33 -5 42 13 8 13 25 0 25 -5 0 -32 -34 -60 -75z
m349 -287 c5 -13 12 -38 15 -55 8 -33 7 -33 -26 -26 -18 3 -35 7 -37 9 -4 3
30 94 36 94 2 0 7 -10 12 -22z m-654 -98 c3 -5 -7 -12 -22 -16 -47 -10 -205
-64 -253 -85 -159 -72 -324 -170 -343 -204 -4 -8 -14 -15 -22 -15 -19 0 -246
-227 -310 -310 -65 -83 -77 -103 -146 -235 -32 -60 -65 -111 -73 -113 -9 -2
-16 0 -16 4 0 19 119 229 178 314 73 105 302 341 392 403 159 110 291 178 452
232 106 35 152 42 163 25z m635 -13 c0 19 40 2 57 -24 9 -13 13 -26 11 -29
-11 -10 -58 8 -58 23 0 8 -4 11 -10 8 -5 -3 -10 -4 -10 -1 0 2 -3 13 -6 23 -5
15 -4 15 5 3 6 -9 11 -10 11 -3z m157 -38 c277 -103 480 -222 693 -410 77 -67
190 -197 190 -218 0 -24 -19 -8 -94 79 -44 50 -82 90 -85 90 -3 0 -24 17 -46
38 -36 35 -120 100 -185 145 -14 9 -35 24 -47 33 -19 13 -36 20 -64 23 -3 1
-19 12 -35 26 -16 14 -36 25 -44 25 -8 0 -31 10 -50 22 -19 12 -91 43 -160 70
-113 43 -150 66 -150 90 0 12 14 10 77 -13z m-857 -44 c-1 -5 -34 -22 -73 -36
-260 -93 -440 -209 -627 -405 -117 -123 -180 -210 -263 -364 -25 -45 -42 -66
-58 -68 -20 -3 -18 4 26 85 199 367 515 643 895 782 57 20 101 23 100 6z m730
3 c0 17 25 15 44 -4 22 -22 20 -34 -6 -34 -23 0 -58 26 -58 44 0 6 5 4 10 -4
6 -10 10 -11 10 -2z m194 -57 c38 -17 72 -31 76 -31 9 0 236 -130 280 -161 81
-56 149 -110 214 -169 73 -66 200 -210 192 -217 -12 -13 -46 13 -96 73 -51 60
-161 160 -264 239 -88 67 -343 208 -416 230 -56 17 -100 46 -100 65 0 22 3 22
114 -29z m-909 9 c-3 -5 -35 -18 -70 -29 -76 -24 -263 -111 -320 -149 -127
-85 -242 -184 -342 -294 -66 -74 -177 -234 -214 -311 -13 -26 -27 -47 -31 -47
-10 0 51 123 84 171 218 318 482 529 803 640 89 31 99 33 90 19z m775 -20 c8
-5 12 -11 9 -14 -7 -8 -49 5 -49 15 0 12 21 11 40 -1z m-766 -35 c4 -11 -1
-15 -18 -15 -13 0 -29 -7 -36 -15 -7 -8 -19 -15 -27 -15 -23 0 -258 -116 -315
-157 -196 -137 -363 -317 -468 -501 -22 -39 -42 -62 -52 -62 -23 0 -22 2 3 53
67 132 235 333 374 446 66 54 190 141 202 141 3 0 17 8 31 18 47 32 255 118
293 121 4 1 9 -6 13 -14z m981 -56 c145 -71 259 -146 394 -258 102 -84 219
-206 208 -217 -5 -6 -56 46 -85 87 -13 19 -158 142 -227 194 -94 70 -244 157
-365 209 -92 41 -126 63 -75 52 16 -4 84 -34 150 -67z m-410 14 c10 -27 27
-68 38 -93 40 -90 130 -346 131 -372 1 -14 4 -24 8 -21 5 2 8 -1 8 -6 0 -27
-29 -7 -46 32 -10 23 -21 44 -25 47 -3 3 -11 26 -18 53 -6 26 -22 71 -35 100
-60 136 -89 226 -77 241 8 10 9 16 1 21 -9 6 -15 45 -6 45 2 0 11 -21 21 -47z
m213 25 c7 -7 12 -20 12 -30 0 -15 -4 -16 -24 -7 -30 14 -42 49 -17 49 9 0 22
-5 29 -12z m172 -76 c143 -71 276 -157 283 -182 4 -16 2 -17 -21 -9 -15 6 -57
30 -95 55 -37 25 -118 70 -180 100 -68 34 -115 63 -119 74 -11 31 6 25 132
-38z m-132 -28 c6 -21 10 -39 8 -41 -2 -2 -14 1 -28 6 -16 6 -28 22 -36 49
-16 54 -16 55 16 38 18 -9 32 -28 40 -52z m-874 47 c18 -7 18 -8 3 -14 -9 -3
-17 -15 -17 -24 0 -14 -29 -33 -108 -70 -128 -61 -179 -93 -288 -184 -131
-109 -240 -233 -305 -346 -29 -50 -33 -53 -70 -53 -21 0 -39 2 -39 5 0 11 68
118 118 185 69 91 215 241 297 303 77 59 200 131 295 173 80 36 85 37 114 25z
m73 -7 c-3 -3 -12 -4 -19 -1 -8 3 -5 6 6 6 11 1 17 -2 13 -5z m890 -48 c132
-65 300 -172 289 -183 -7 -8 18 -55 42 -76 11 -10 32 -19 47 -21 17 -2 49 -25
88 -64 35 -34 68 -62 74 -62 15 0 37 -39 28 -48 -3 -4 -10 0 -15 8 -5 8 -21
16 -35 17 -22 2 -25 -1 -15 -13 29 -35 -5 -8 -90 70 -50 46 -114 102 -143 124
-54 42 -242 158 -288 179 -18 8 -32 26 -42 57 -9 25 -14 46 -12 46 3 0 35 -15
72 -34z m-86 -56 c28 -16 23 -32 -6 -18 -14 6 -25 15 -25 20 0 11 7 10 31 -2z
m-810 -23 c-10 -9 -11 -8 -5 6 3 10 9 15 12 12 3 -3 0 -11 -7 -18z m-41 3 c0
-6 -14 -41 -30 -77 -17 -37 -28 -74 -25 -81 3 -8 -19 -58 -49 -111 -29 -53
-68 -124 -85 -158 -17 -35 -35 -63 -40 -63 -6 0 -12 -8 -15 -18 -5 -15 -18
-19 -64 -20 -80 -3 -235 -11 -309 -18 -38 -3 -63 -2 -63 4 0 18 136 186 206
254 115 111 211 178 359 249 107 52 115 55 115 39z m745 -118 c-2 -3 -8 4 -11
14 -4 10 -13 34 -20 53 -8 18 -14 39 -14 45 1 6 12 -16 25 -48 14 -33 23 -61
20 -64z m105 -63 c33 -94 55 -168 50 -163 -10 10 -120 320 -120 338 0 24 15
-14 70 -175z m-343 81 c47 -92 57 -135 33 -135 -14 0 -25 19 -79 139 -36 79
-37 85 -13 82 11 -1 33 -33 59 -86z m548 2 c55 -35 134 -93 175 -127 77 -64
210 -197 210 -210 0 -4 -42 35 -92 87 -103 105 -207 186 -346 267 -51 30 -92
58 -92 63 0 12 25 -3 145 -80z m-1255 56 c-19 -12 -57 -36 -85 -53 -69 -44
-75 -47 -75 -40 0 5 87 64 145 97 44 25 56 22 15 -4z m1087 -2 c6 -4 143 -391
143 -403 0 -39 -27 5 -76 122 -60 148 -114 285 -114 292 0 3 40 -6 47 -11z
m-933 -193 c-48 -93 -100 -194 -117 -226 -16 -32 -32 -55 -35 -52 -14 14 212
445 234 445 2 0 -35 -75 -82 -167z m146 153 c0 -34 -143 -353 -181 -406 -27
-36 -44 -30 -24 9 8 16 12 30 10 33 -14 14 96 280 145 348 22 32 50 40 50 16z
m1014 -104 c84 -61 284 -246 276 -255 -3 -3 -77 -7 -165 -8 l-160 -2 -14 39
c-7 21 -38 103 -67 182 -30 79 -54 148 -54 152 0 12 87 -39 184 -108z m-1489
30 c-6 -5 -37 -31 -69 -58 -71 -59 -183 -186 -239 -271 -23 -35 -45 -63 -50
-63 -4 0 16 35 45 78 55 81 286 322 309 322 8 0 9 -3 4 -8z m826 -39 c36 -81
109 -257 109 -265 0 -5 -4 -8 -8 -8 -5 0 -22 33 -37 73 -16 39 -43 107 -62
150 -18 43 -33 82 -33 87 0 20 10 8 31 -37z m-195 -42 c-15 -28 -28 -51 -31
-51 -3 0 7 25 22 55 15 30 29 53 31 51 2 -2 -8 -27 -22 -55z m198 -100 c25
-63 46 -120 46 -127 0 -11 -226 -31 -236 -21 -3 3 25 67 61 142 37 76 70 134
75 129 4 -5 28 -61 54 -123z m1053 62 c47 -52 47 -52 34 -72 -7 -11 -13 -8
-26 13 -10 15 -15 30 -11 33 3 4 -8 22 -26 40 -17 18 -28 33 -23 33 5 0 28
-21 52 -47z m-851 -71 c3 -15 12 -46 19 -69 15 -48 14 -50 -20 -27 -27 18 -72
145 -59 166 10 15 52 -34 60 -70z m-485 -15 c-10 -9 -11 -8 -5 6 3 10 9 15 12
12 3 -3 0 -11 -7 -18z m30 -14 c-12 -20 -14 -14 -5 12 4 9 9 14 11 11 3 -2 0
-13 -6 -23z m589 -77 c0 -18 -17 8 -24 34 l-7 25 15 -25 c9 -14 15 -29 16 -34z
m-265 -66 c0 -12 -23 -16 -125 -21 -69 -3 -126 -2 -128 2 -2 5 -11 9 -20 10
-9 0 6 7 33 14 28 7 93 12 145 11 77 -1 95 -4 95 -16z m-115 -60 c0 -5 -24
-10 -54 -10 -29 0 -74 -3 -100 -6 -30 -5 -46 -3 -46 4 0 10 24 13 163 20 20 1
37 -2 37 -8z m113 3 c-13 -2 -35 -2 -50 0 -16 2 -5 4 22 4 28 0 40 -2 28 -4z
m-1299 -21 c15 -24 -19 -35 -194 -65 -83 -14 -120 -12 -120 7 0 7 30 17 78 24
63 10 122 21 224 41 4 0 9 -3 12 -7z m-251 -9 c-7 -2 -19 -2 -25 0 -7 3 -2 5
12 5 14 0 19 -2 13 -5z m1577 -7 c0 -26 -41 -33 -298 -52 -24 -1 -47 -5 -50
-8 -6 -6 -32 13 -32 23 0 16 80 34 184 41 182 12 196 12 196 -4z m1845 -76
c-3 -5 -12 -10 -18 -10 -7 0 -6 4 3 10 19 12 23 12 15 0z m-3257 -17 c-4 -24
-88 -32 -88 -9 0 13 20 20 73 25 13 1 17 -5 15 -16z m3338 -10 c-3 -19 -29
-23 -251 -39 -136 -10 -497 -6 -528 5 l-22 9 25 5 c14 3 169 8 345 12 267 4
356 9 427 24 3 0 5 -7 4 -16z m-1923 -20 c-18 -2 -48 -2 -65 0 -18 2 -4 4 32
4 36 0 50 -2 33 -4z m-120 -10 c-7 -2 -19 -2 -25 0 -7 3 -2 5 12 5 14 0 19 -2
13 -5z m-663 -28 c0 -10 -10 -15 -30 -15 -29 0 -38 9 -23 23 13 13 53 7 53 -8z
m-1407 -2 c-7 -2 -19 -2 -25 0 -7 3 -2 5 12 5 14 0 19 -2 13 -5z m2262 -3 c3
-5 1 -10 -4 -10 -6 0 -11 -7 -11 -15 0 -8 4 -15 9 -15 5 0 7 -9 4 -20 -5 -17
-14 -20 -69 -20 -57 0 -64 2 -64 19 0 11 8 22 18 24 30 8 -110 7 -208 -2 -52
-5 -120 -5 -150 -1 -30 4 -43 8 -28 9 14 0 28 6 30 12 2 6 28 14 58 19 83 12
408 12 415 0z m-1111 -6 c25 -9 19 -34 -8 -34 -13 0 -72 -11 -132 -24 -116
-26 -264 -43 -229 -27 14 7 16 10 5 11 -8 1 1 6 20 10 19 4 60 13 90 20 30 7
96 20 145 30 50 10 91 18 92 19 1 0 8 -2 17 -5z m-1086 -21 c-10 -2 -26 -2
-35 0 -10 3 -2 5 17 5 19 0 27 -2 18 -5z m312 -17 c0 -16 -30 -26 -82 -26 -49
0 -53 27 -5 33 69 8 87 7 87 -7z m3064 -93 c38 -167 39 -176 35 -478 0 -16 -6
-52 -12 -80 -6 -27 -12 -59 -13 -70 -12 -100 -146 -435 -174 -435 -5 0 -14 17
-21 39 -11 35 -9 44 20 100 118 232 163 572 111 829 -11 56 -25 114 -30 128
-14 35 -15 34 29 34 l39 0 16 -67z m52 17 c8 -25 21 -99 30 -165 18 -130 15
-337 -5 -430 -7 -27 -16 -72 -23 -100 -11 -54 -42 -149 -65 -205 -24 -59 -102
-214 -117 -235 -14 -19 -15 -19 -21 7 -5 19 -1 36 12 55 37 53 102 201 132
299 74 245 81 535 18 772 -14 51 -14 53 6 50 14 -2 24 -16 33 -48z m46 14 c47
-169 56 -456 19 -637 -34 -169 -88 -319 -165 -460 -24 -45 -52 -91 -60 -102
-24 -31 -20 4 5 40 28 42 92 169 122 243 112 276 137 634 63 900 -10 36 -11
52 -3 49 6 -2 15 -17 19 -33z m60 1 c70 -247 54 -595 -38 -865 -55 -159 -193
-418 -215 -404 -15 9 -3 47 27 91 34 50 109 199 135 268 105 280 128 620 60
890 -14 54 -14 57 6 53 9 -2 20 -16 25 -33z m77 -2 c6 -21 18 -92 27 -158 42
-305 -23 -670 -169 -950 -57 -109 -137 -235 -148 -235 -4 0 -11 9 -14 20 -5
15 4 36 32 73 50 66 83 124 83 143 0 8 4 13 9 10 5 -4 12 7 16 23 3 16 13 35
21 41 7 7 12 16 9 20 -3 5 -1 11 5 15 5 3 10 15 10 26 0 10 5 19 10 19 6 0 10
11 10 24 0 14 5 28 10 31 6 3 10 17 10 31 0 13 4 24 8 24 4 0 13 24 20 53 6
28 15 61 18 72 30 99 46 262 39 390 -4 66 -6 131 -6 145 0 14 -4 34 -9 45 -11
24 -29 157 -23 168 10 17 23 5 32 -30z m-706 0 c-13 -2 -35 -2 -50 0 -16 2 -5
4 22 4 28 0 40 -2 28 -4z m54 1 c-3 -3 -12 -4 -19 -1 -8 3 -5 6 6 6 11 1 17
-2 13 -5z m-183 -120 c26 -60 66 -161 88 -224 22 -63 44 -119 49 -124 5 -6 9
-18 9 -28 0 -10 4 -18 9 -18 5 0 7 -9 4 -20 -8 -30 -19 -24 -37 18 -9 20 -21
45 -26 54 -6 10 -10 24 -10 32 0 7 -7 19 -14 26 -8 6 -22 35 -32 63 -9 29 -33
90 -52 136 -24 56 -32 86 -24 89 12 4 -10 72 -32 101 -9 11 -8 13 4 9 8 -2 37
-54 64 -114z m94 94 c17 -14 173 -2 183 13 5 9 30 10 85 5 43 -4 81 -9 85 -12
12 -7 37 -130 49 -238 15 -141 2 -290 -42 -455 -19 -74 -79 -224 -86 -216 -2
2 -32 73 -67 157 -34 84 -76 185 -93 223 -16 39 -50 126 -75 195 -25 69 -64
174 -86 234 -23 60 -41 111 -41 114 0 8 74 -9 88 -20z m437 -169 c16 -117 20
-239 8 -239 -5 0 -9 44 -9 98 -1 54 -9 138 -19 187 -9 50 -18 101 -21 115 -2
14 2 8 11 -13 8 -21 21 -88 30 -148z m-2105 136 c0 -8 -4 -15 -10 -15 -5 0 -7
7 -4 15 4 8 8 15 10 15 2 0 4 -7 4 -15z m65 5 c-3 -5 -11 -10 -16 -10 -6 0 -7
5 -4 10 3 6 11 10 16 10 6 0 7 -4 4 -10z m-145 -20 c-6 -11 -12 -20 -14 -20
-2 0 -43 -7 -92 -16 -79 -13 -119 -19 -281 -41 -35 -4 -43 -2 -43 11 0 23 27
31 170 51 69 9 145 20 170 25 25 4 58 8 73 9 25 1 27 -1 17 -19z m444 -2 c-11
-36 -147 -319 -151 -314 -2 2 16 46 40 97 24 52 58 127 77 167 33 71 48 93 34
50z m-105 -49 c-33 -87 -59 -139 -69 -139 -5 0 8 37 29 83 21 45 41 91 45 101
3 10 9 17 11 14 2 -2 -5 -29 -16 -59z m-272 -99 c-34 -72 -63 -126 -65 -120
-2 6 1 16 6 23 6 7 21 42 35 78 32 84 65 149 76 149 5 0 -18 -59 -52 -130z
m-97 96 c0 -4 -78 -181 -121 -274 -16 -35 -29 -66 -29 -69 0 -6 -21 -52 -146
-321 -19 -39 -34 -77 -34 -82 0 -6 -4 -10 -9 -10 -11 0 -49 131 -67 233 -16
85 -19 357 -6 431 l7 40 135 18 c74 10 158 22 185 27 58 10 85 13 85 7z m-665
-16 c-3 -5 -13 -10 -21 -10 -8 0 -12 5 -9 10 3 6 13 10 21 10 8 0 12 -4 9 -10z
m190 -10 c-3 -5 -21 -10 -38 -9 -31 1 -31 1 -7 9 36 11 52 11 45 0z m-273 -57
c-8 -114 -9 -298 -2 -308 4 -5 7 -32 5 -60 -1 -27 1 -54 5 -60 13 -19 32 -133
25 -146 -5 -7 -4 -10 3 -5 7 4 13 -11 18 -41 3 -27 10 -52 14 -58 4 -5 13 -28
20 -50 6 -22 18 -55 26 -73 8 -18 12 -37 8 -44 -4 -7 -3 -8 4 -4 7 4 12 1 12
-7 0 -13 -28 -32 -35 -25 -7 8 -55 130 -73 188 -52 159 -66 272 -67 503 0 205
1 219 19 233 11 8 20 14 21 14 1 0 0 -26 -3 -57z m2254 -28 c55 -112 72 -113
33 -2 -23 66 -21 87 4 30 41 -97 97 -246 97 -259 0 -25 -20 -15 -34 19 l-15
32 4 -49 c2 -30 0 -45 -6 -39 -14 14 -98 221 -109 269 -5 22 -12 48 -16 57 -3
9 -4 17 -1 17 3 0 22 -34 43 -75z m-2190 47 c8 -5 9 -39 3 -112 -10 -142 -3
-250 27 -404 26 -136 46 -202 101 -331 52 -124 41 -186 -13 -70 -119 261 -171
547 -149 828 7 96 9 104 31 89z m114 -48 c-3 -27 -5 -114 -4 -194 1 -198 24
-322 95 -514 28 -74 38 -111 31 -118 -36 -36 -134 270 -162 507 -10 84 -2 333
12 358 18 34 32 13 28 -39z m93 29 c-5 -16 -8 -109 -8 -208 1 -204 15 -294 72
-460 32 -91 34 -102 22 -138 -7 -21 -16 -40 -19 -42 -14 -9 -94 208 -118 320
-23 106 -34 256 -30 390 2 78 8 146 12 153 4 7 23 12 42 12 33 0 34 -1 27 -27z
m32 -45 c-21 -210 9 -475 70 -622 9 -21 14 -45 12 -54 -5 -24 -62 156 -83 263
-19 95 -25 347 -10 438 11 73 19 56 11 -25z m1752 50 c-3 -8 -6 -5 -6 6 -1 11
2 17 5 13 3 -3 4 -12 1 -19z m-1945 -175 c-4 -249 22 -396 109 -613 21 -54 39
-104 39 -111 -1 -28 -50 80 -89 196 -51 152 -71 258 -78 415 -6 126 3 300 15
300 4 0 6 -84 4 -187z m1966 125 c8 -18 20 -51 29 -73 8 -22 22 -56 30 -75 8
-19 25 -62 38 -95 13 -33 29 -73 35 -90 7 -16 14 -37 15 -45 1 -8 6 -24 10
-35 7 -20 6 -20 -9 -1 -9 11 -16 23 -16 28 0 4 -20 52 -44 105 -24 54 -57 139
-74 188 -17 50 -34 98 -37 108 -4 9 -3 17 1 17 5 0 15 -15 22 -32z m338 -175
c-5 -5 -36 74 -36 90 1 6 10 -10 20 -37 11 -28 18 -51 16 -53z m33 37 c0 -10
-3 -8 -9 5 -12 27 -12 43 0 25 5 -8 9 -22 9 -30z m-180 -40 c6 -19 8 -30 3
-25 -5 6 -15 26 -21 45 -6 19 -8 30 -3 25 5 -6 15 -26 21 -45z m698 -92 c-3
-40 -17 -118 -32 -172 -32 -127 -115 -326 -115 -278 0 7 13 39 30 71 40 81 86
240 101 355 7 53 15 96 18 96 2 0 1 -33 -2 -72z m-2121 -208 c-20 -44 -36 -84
-36 -90 0 -5 -4 -10 -10 -10 -11 0 28 113 41 118 5 2 9 13 9 23 0 28 22 68 28
51 2 -7 -12 -49 -32 -92z m-273 -10 c-3 -12 -8 -19 -11 -16 -5 6 5 36 12 36 2
0 2 -9 -1 -20z m208 -131 c-5 -13 -10 -19 -10 -12 -1 15 10 45 15 40 3 -2 0
-15 -5 -28z m-273 -9 c-5 -17 -15 -33 -21 -37 -5 -3 -7 -2 -4 4 4 6 11 22 16
37 14 36 22 33 9 -4z m255 -40 c-5 -19 -23 -39 -23 -25 0 9 20 45 24 45 2 0 2
-9 -1 -20z m65 -35 c-6 -14 -13 -23 -15 -21 -5 5 15 46 22 46 3 0 -1 -11 -7
-25z m-40 -90 c-6 -14 -13 -23 -15 -21 -5 5 15 46 22 46 3 0 -1 -11 -7 -25z
m136 -493 c16 -9 41 -27 56 -40 16 -12 57 -36 93 -53 58 -27 94 -59 66 -59 -6
0 -8 -4 -5 -9 9 -14 -32 -1 -45 15 -6 8 -17 14 -25 14 -7 0 -19 6 -26 13 -16
15 -66 47 -73 47 -3 0 -18 11 -33 25 -15 14 -35 28 -44 31 -10 3 -18 11 -18
19 0 7 -7 16 -16 19 -8 3 -12 11 -9 17 5 7 14 5 28 -6 12 -9 35 -23 51 -33z
m1656 27 c0 -6 -4 -7 -10 -4 -5 3 -10 11 -10 16 0 6 5 7 10 4 6 -3 10 -11 10
-16z m-1719 -145 c56 -37 131 -79 166 -94 35 -15 69 -32 76 -39 19 -19 -7 -13
-77 19 -66 29 -296 174 -296 186 0 11 27 -4 131 -72z m-21 50 c0 -2 -9 0 -20
6 -11 6 -20 13 -20 16 0 2 9 0 20 -6 11 -6 20 -13 20 -16z m1923 -6 c6 -22 5
-22 -8 -4 -17 22 -20 40 -6 32 5 -3 11 -16 14 -28z m-1838 -15 c22 -15 77 -46
122 -68 64 -31 81 -43 74 -54 -8 -12 -19 -10 -69 12 -89 38 -192 107 -185 123
7 19 13 18 58 -13z m-129 -42 c135 -88 159 -101 227 -127 62 -24 68 -28 53
-40 -14 -10 -25 -10 -55 1 -94 33 -312 167 -291 180 9 6 9 9 -1 16 -8 5 -9 9
-3 9 6 0 37 -17 70 -39z m-28 -48 c31 -20 68 -44 82 -53 30 -21 164 -80 179
-80 14 0 14 -27 1 -35 -5 -3 -10 -1 -10 4 0 6 -8 11 -17 11 -10 0 -26 7 -36
15 -11 7 -26 11 -35 8 -9 -4 -13 -2 -9 4 5 7 0 9 -12 6 -11 -3 -40 8 -67 23
-27 16 -55 29 -64 31 -8 1 -22 11 -32 22 -9 12 -21 21 -26 21 -16 0 -35 29
-28 45 7 20 8 20 74 -22z m1932 -34 c16 -32 27 -59 25 -59 -8 0 -46 60 -61 95
-24 57 3 31 36 -36z m-2447 -24 c-9 -19 -18 -33 -21 -31 -4 5 26 66 33 66 3 0
-3 -16 -12 -35z m27 -55 c-29 -57 -37 -44 -8 14 12 26 24 43 26 37 2 -5 -6
-28 -18 -51z m478 4 c42 -26 92 -54 112 -62 19 -8 29 -17 22 -19 -11 -4 -125
57 -197 107 -55 37 -14 21 63 -26z"/>
<path d="M1876 3535 c-9 -26 -7 -32 5 -12 6 10 9 21 6 23 -2 3 -7 -2 -11 -11z"/>
<path d="M3837 4375 c-8 -18 11 -31 25 -17 11 11 3 32 -12 32 -4 0 -10 -7 -13
-15z"/>
<path d="M3510 4275 c0 -29 25 -44 43 -26 14 14 -2 44 -27 49 -11 3 -16 -4
-16 -23z"/>
<path d="M3747 4164 c-4 -4 -7 -18 -7 -31 0 -18 5 -23 26 -23 22 0 25 4 22 27
-3 27 -26 41 -41 27z"/>
<path d="M4122 3783 c-12 -24 -4 -43 18 -43 20 0 36 33 25 50 -10 16 -33 12
-43 -7z"/>
<path d="M1995 2420 c-7 -12 2 -30 16 -30 5 0 9 9 9 20 0 21 -15 27 -25 10z"/>
<path d="M2044 2046 c-9 -24 15 -56 42 -56 32 0 41 25 19 50 -21 23 -53 26
-61 6z"/>
<path d="M1763 1834 c-8 -22 15 -44 26 -25 10 16 4 41 -10 41 -5 0 -12 -7 -16
-16z"/>
<path d="M735 1676 c-22 -32 -5 -76 29 -76 46 0 55 40 18 83 -20 23 -29 22
-47 -7z"/>
<path d="M3060 1402 c-36 -20 -108 -51 -160 -69 -52 -18 -89 -32 -81 -33 47
-1 289 102 307 131 7 12 8 12 -66 -29z"/>
<path d="M3040 1358 c-54 -27 -136 -60 -190 -74 -52 -13 -75 -22 -50 -19 25 3
83 19 130 36 115 40 135 44 73 15 -61 -28 -141 -53 -238 -72 l-70 -13 60 5
c114 11 270 67 377 135 29 18 30 20 8 14 -24 -6 -24 -5 -6 9 33 26 6 16 -94
-36z m52 1 c-18 -12 -35 -19 -38 -16 -3 3 7 12 23 21 42 23 53 19 15 -5z"/>
<path d="M3195 1334 c-11 -8 -55 -34 -97 -57 -43 -23 -78 -47 -78 -53 0 -7
-11 -15 -24 -18 -13 -3 -32 -8 -43 -11 -10 -3 0 4 22 15 22 11 32 18 22 15
-97 -27 -134 -38 -142 -43 -5 -4 -18 -5 -27 -4 -10 2 -18 -1 -18 -6 0 -5 -15
-7 -32 -5 -27 3 -30 1 -13 -7 15 -7 8 -8 -30 -6 -27 2 -36 1 -20 -2 l30 -6
-35 -7 c-36 -7 17 -4 129 7 112 11 401 151 401 195 0 14 -23 10 -45 -7z"/>
<path d="M2168 1313 c7 -3 16 -2 19 1 4 3 -2 6 -13 5 -11 0 -14 -3 -6 -6z"/>
<path d="M2218 1303 c7 -3 16 -2 19 1 4 3 -2 6 -13 5 -11 0 -14 -3 -6 -6z"/>
<path d="M2263 1293 c9 -2 23 -2 30 0 6 3 -1 5 -18 5 -16 0 -22 -2 -12 -5z"/>
<path d="M2763 1293 c9 -2 23 -2 30 0 6 3 -1 5 -18 5 -16 0 -22 -2 -12 -5z"/>
<path d="M2168 1283 c7 -3 16 -2 19 1 4 3 -2 6 -13 5 -11 0 -14 -3 -6 -6z"/>
<path d="M2323 1283 c9 -2 25 -2 35 0 9 3 1 5 -18 5 -19 0 -27 -2 -17 -5z"/>
<path d="M2693 1283 c9 -2 25 -2 35 0 9 3 1 5 -18 5 -19 0 -27 -2 -17 -5z"/>
<path d="M2208 1273 c7 -3 16 -2 19 1 4 3 -2 6 -13 5 -11 0 -14 -3 -6 -6z"/>
<path d="M2458 1273 c39 -2 105 -2 145 0 39 1 7 3 -73 3 -80 0 -112 -2 -72 -3z"/>
<path d="M2158 1263 c7 -3 16 -2 19 1 4 3 -2 6 -13 5 -11 0 -14 -3 -6 -6z"/>
<path d="M2265 1261 c31 -9 102 -14 94 -7 -2 2 -31 6 -64 9 -39 4 -50 3 -30
-2z"/>
<path d="M2198 1253 c7 -3 16 -2 19 1 4 3 -2 6 -13 5 -11 0 -14 -3 -6 -6z"/>
<path d="M2703 1253 c9 -2 25 -2 35 0 9 3 1 5 -18 5 -19 0 -27 -2 -17 -5z"/>
<path d="M2243 1243 c9 -2 23 -2 30 0 6 3 -1 5 -18 5 -16 0 -22 -2 -12 -5z"/>
<path d="M2443 1243 c42 -2 112 -2 155 0 42 1 7 3 -78 3 -85 0 -120 -2 -77 -3z"/>
<path d="M2303 1233 c9 -2 25 -2 35 0 9 3 1 5 -18 5 -19 0 -27 -2 -17 -5z"/>
<path d="M2420 1220 c36 -4 69 -3 75 2 5 4 -25 7 -65 6 l-75 -1 65 -7z"/>
<path d="M2598 1223 c17 -2 47 -2 65 0 17 2 3 4 -33 4 -36 0 -50 -2 -32 -4z"/>
<path d="M1384 1089 c-22 -24 -10 -52 25 -57 15 -3 24 4 31 24 6 15 9 33 6 41
-8 20 -40 16 -62 -8z"/>
<path d="M3802 1101 c4 -13 18 -16 19 -4 0 4 -5 9 -11 12 -7 2 -11 -2 -8 -8z"/>
<path d="M1767 1054 c-9 -10 12 -34 30 -34 19 0 12 34 -8 38 -8 1 -18 0 -22
-4z"/>
<path d="M3940 1026 c0 -17 27 -29 35 -16 4 6 3 15 0 20 -9 15 -35 12 -35 -4z"/>
<path d="M2650 950 c0 -5 5 -10 11 -10 5 0 7 5 4 10 -3 6 -8 10 -11 10 -2 0
-4 -4 -4 -10z"/>
<path d="M917 850 c-3 -11 -1 -23 5 -26 13 -9 42 21 34 35 -11 18 -33 13 -39
-9z"/>
<path d="M990 729 c0 -24 23 -21 28 4 2 10 -3 17 -12 17 -10 0 -16 -9 -16 -21z"/>
<path d="M122 447 c-16 -19 -92 -187 -92 -203 0 -24 30 -15 40 11 9 23 15 25
65 25 50 0 57 -3 67 -25 13 -28 45 -30 40 -3 -5 30 -91 208 -100 208 -5 0 -14
-6 -20 -13z m48 -124 c0 -8 -14 -13 -35 -13 -40 0 -41 1 -17 58 l17 43 17 -38
c10 -21 18 -44 18 -50z"/>
<path d="M353 449 c-14 -14 -19 -173 -7 -203 14 -37 44 -10 44 39 0 19 6 23
50 29 73 10 103 65 62 116 -22 27 -129 40 -149 19z m122 -64 c0 -28 -3 -30
-42 -33 l-43 -3 0 36 0 36 43 -3 c39 -3 42 -5 42 -33z"/>
<path d="M633 454 c-9 -4 -13 -37 -13 -115 l0 -109 75 0 c60 0 75 3 75 15 0
12 -13 15 -55 15 l-55 0 0 35 0 35 50 0 c38 0 50 4 50 15 0 11 -12 15 -50 15
-49 0 -50 1 -50 29 0 29 2 30 53 33 38 2 52 7 52 18 0 11 -14 15 -60 17 -33 1
-66 -1 -72 -3z"/>
<path d="M870 443 c0 -9 10 -30 23 -47 13 -17 26 -36 30 -42 4 -6 -9 -32 -28
-57 -19 -25 -35 -51 -35 -56 0 -25 37 -7 64 31 l29 41 28 -34 c16 -19 29 -37
29 -41 0 -13 40 -9 40 3 0 6 -13 28 -28 48 -16 20 -31 41 -35 47 -3 6 10 32
29 59 24 35 31 52 23 59 -8 8 -21 -1 -48 -32 l-37 -43 -33 41 c-34 43 -51 50
-51 23z"/>
<path d="M1350 453 c-30 -11 -50 -37 -50 -63 0 -34 25 -56 72 -65 47 -9 66
-29 48 -50 -15 -18 -47 -19 -86 -5 -30 12 -48 2 -35 -19 6 -8 32 -16 66 -19
48 -4 59 -1 80 18 49 46 26 86 -63 110 -36 9 -43 15 -40 33 3 20 8 22 61 21
38 -1 57 3 57 11 0 25 -70 43 -110 28z"/>
<path d="M1614 441 c-62 -38 -68 -139 -12 -186 79 -67 189 1 175 108 -11 79
-96 120 -163 78z m93 -29 c6 -4 16 -20 22 -35 30 -78 -45 -151 -99 -97 -25 25
-27 95 -3 122 16 18 58 24 80 10z"/>
<path d="M1944 450 c-12 -4 -31 -21 -44 -37 -18 -23 -21 -37 -18 -82 4 -44 10
-59 32 -78 43 -37 146 -28 146 13 0 11 -5 14 -17 9 -51 -19 -72 -17 -99 10
-23 23 -26 32 -21 68 7 55 29 70 90 63 37 -4 47 -2 47 10 0 27 -71 42 -116 24z"/>
<path d="M2166 444 c-8 -20 -8 -178 0 -198 8 -21 30 -21 38 0 8 20 8 178 0
198 -3 9 -12 16 -19 16 -7 0 -16 -7 -19 -16z"/>
<path d="M2369 393 c-59 -129 -67 -151 -62 -157 13 -13 30 -5 41 19 10 22 18
25 67 25 49 0 57 -3 67 -25 12 -27 38 -34 38 -11 0 28 -89 211 -105 214 -10 3
-25 -17 -46 -65z m80 -70 c1 -8 -12 -13 -34 -13 -40 0 -41 4 -18 62 l17 42 17
-40 c10 -21 18 -45 18 -51z"/>
<path d="M2632 451 c-9 -6 -12 -35 -10 -112 l3 -104 73 -3 c58 -2 72 0 72 12
0 11 -14 16 -52 18 l-53 3 -3 90 c-3 93 -8 110 -30 96z"/>
<path d="M3052 450 c-32 -13 -48 -53 -34 -85 8 -18 26 -29 67 -40 42 -13 55
-21 55 -36 0 -25 -43 -35 -85 -20 -41 14 -45 14 -45 -4 0 -21 33 -35 82 -35
56 0 88 22 88 60 0 37 -22 59 -71 66 -48 8 -67 27 -48 50 10 13 24 15 61 11
38 -5 48 -3 48 9 0 28 -71 42 -118 24z"/>
<path d="M3292 452 c-9 -6 -12 -36 -10 -113 l3 -104 73 -3 c59 -2 72 0 72 13
0 12 -12 15 -55 15 l-55 0 0 34 0 35 53 3 c28 2 52 8 52 13 0 6 -24 11 -52 13
-51 3 -53 4 -53 33 0 29 1 29 56 29 47 0 55 3 52 18 -3 13 -15 18 -63 20 -33
1 -66 -2 -73 -6z"/>
<path d="M3548 454 c-5 -4 -8 -56 -8 -116 0 -99 2 -109 18 -106 12 2 18 15 20
46 3 37 6 42 28 42 17 0 30 -9 42 -31 30 -55 38 -63 56 -56 16 7 16 11 -6 50
-24 41 -24 43 -6 60 24 22 23 69 -1 91 -21 19 -130 34 -143 20z m120 -63 c4
-29 -12 -41 -55 -41 -31 0 -33 2 -33 36 l0 35 43 -3 c36 -3 43 -7 45 -27z"/>
<path d="M3806 451 c-3 -5 15 -57 41 -115 60 -137 68 -137 130 2 35 78 43 106
35 114 -17 17 -25 5 -63 -85 -18 -43 -36 -74 -40 -70 -4 4 -19 37 -34 73 -35
85 -54 107 -69 81z"/>
<path d="M4115 448 c-3 -8 -4 -59 -3 -114 3 -85 5 -99 21 -102 16 -3 17 6 15
109 -2 79 -7 114 -15 117 -7 2 -15 -3 -18 -10z"/>
<path d="M4325 451 c-34 -15 -56 -48 -62 -90 -11 -80 34 -131 115 -131 44 0
83 23 66 39 -7 8 -19 8 -40 1 -61 -22 -113 26 -99 91 10 45 38 63 89 56 25 -4
48 -3 50 2 16 25 -78 50 -119 32z"/>
<path d="M4562 452 c-9 -6 -12 -36 -10 -113 l3 -104 73 -3 c59 -2 72 0 72 13
0 12 -12 15 -55 15 l-55 0 0 35 0 35 50 0 c38 0 50 4 50 15 0 11 -12 15 -50
15 -49 0 -50 1 -50 29 0 29 2 30 53 33 38 2 52 7 52 18 0 11 -14 16 -60 18
-33 1 -66 -2 -73 -6z"/>
<path d="M4850 453 c-52 -19 -68 -81 -27 -107 12 -8 41 -19 65 -26 44 -11 53
-28 27 -50 -15 -12 -60 -10 -97 5 -13 5 -18 2 -18 -9 0 -39 115 -51 150 -16
42 42 17 92 -52 105 -43 8 -63 27 -54 51 5 14 16 16 61 11 44 -4 55 -3 55 9 0
25 -69 42 -110 27z"/>
</g>
</svg>
